# xmcd CD database file generated by OrangeCD 5.2
#
# Track frame offsets:
#	150
#	7891
#	16059
#	33036
#	42995
#	45266
#	58311
#	73399
#	85175
#	99379
#	111801
#	120128
#	136648
#	144535
#	153088
#	160796
#	166365
#	172202
#	174301
#	187963
#	192514
#	202596
#	204715
#	214825
#	223905
#	239521
#
# Disc length: 3573 seconds
#
# Revision: 0
# Processed by: cddbd v1.5.1PL2 Copyright (c) Steve Scherf et al.
# Submitted via: OrangeCD 5.2
#
DISCID=5d0df31a
DTITLE=Johnny Cash - Live At The BBC
DYEAR=1968
DGENRE=Country
TTITLE0=Big River
TTITLE1=I Still Miss Someone
TTITLE2=The Ballad Of Ira Hayes
TTITLE3=Another Song To Sing
TTITLE4=Introductions
TTITLE5=Orange Blossom Special
TTITLE6=The Ballad Of Boot Hill
TTITLE7=Carl Perkins - Lake County Cotton
TTITLE8=Carl Perkins - Turn Around
TTITLE9=Carl Perkins - Matchbox
TTITLE10=Carl Perkins - On The Outside Looking In
TTITLE11=Carl Perkins - Country Boy's Dream
TTITLE12=I Got Stripes
TTITLE13=Long Black Veil
TTITLE14=Delia's Gone
TTITLE15=Dark As A Dungeon
TTITLE16=Folsom Prison Blues
TTITLE17=Introduction Of June Carter Cash
TTITLE18=Johnny Cash and June Carter Cash - Jackson
TTITLE19=June Carter Cash - Dialogue
TTITLE20=June Carter Cash - The Last Thing On My Mind
TTITLE21=June Carter Cash - Dialogue
TTITLE22=June Carter Cash - Bye Bye, Bye Bye
TTITLE23=The Old Account
TTITLE24=Ring Of Fire
TTITLE25=Johnny Cash and June Carter Cash - Someday My Ship Will Sail
EXTD=Recorded Live At The BBC, June 20 1968
EXTT0=
EXTT1=
EXTT2=
EXTT3=
EXTT4=
EXTT5=
EXTT6=
EXTT7=
EXTT8=
EXTT9=
EXTT10=
EXTT11=
EXTT12=
EXTT13=
EXTT14=
EXTT15=
EXTT16=
EXTT17=
EXTT18=
EXTT19=
EXTT20=
EXTT21=
EXTT22=
EXTT23=
EXTT24=
EXTT25=
PLAYORDER=
